<svg width="57" height="60" viewBox="0 0 57 60" fill="none" xmlns="http://www.w3.org/2000/svg">
<mask id="path-1-inside-1" fill="white">
<path fill-rule="evenodd" clip-rule="evenodd" d="M0.375 47.3046V45.9375C0.375 36.5859 19.1133 31.875 28.5 31.875C37.8867 31.875 56.625 36.5859 56.625 45.9375V47.3046C49.7536 55.0898 39.7002 60 28.5 60C17.2998 60 7.24635 55.0898 0.375 47.3046ZM28.5 0.625C20.7305 0.625 14.4375 6.91797 14.4375 14.6875C14.4375 22.457 20.7305 28.75 28.5 28.75C36.2695 28.75 42.5625 22.457 42.5625 14.6875C42.5625 6.91797 36.2695 0.625 28.5 0.625Z"/>
</mask>
<path fill-rule="evenodd" clip-rule="evenodd" d="M0.375 47.3046V45.9375C0.375 36.5859 19.1133 31.875 28.5 31.875C37.8867 31.875 56.625 36.5859 56.625 45.9375V47.3046C49.7536 55.0898 39.7002 60 28.5 60C17.2998 60 7.24635 55.0898 0.375 47.3046ZM28.5 0.625C20.7305 0.625 14.4375 6.91797 14.4375 14.6875C14.4375 22.457 20.7305 28.75 28.5 28.75C36.2695 28.75 42.5625 22.457 42.5625 14.6875C42.5625 6.91797 36.2695 0.625 28.5 0.625Z" fill="#EEEEEE"/>
<path d="M0.375 47.3046H-1.625V48.061L-1.12448 48.6281L0.375 47.3046ZM56.625 47.3046L58.1245 48.6281L58.625 48.061V47.3046H56.625ZM2.375 47.3046V45.9375H-1.625V47.3046H2.375ZM2.375 45.9375C2.375 44.3342 3.16229 42.7818 4.80598 41.2647C6.46325 39.7352 8.85433 38.3804 11.6612 37.256C17.2782 35.0058 24.0567 33.875 28.5 33.875V29.875C23.5566 29.875 16.2726 31.0996 10.1737 33.5428C7.12272 34.7651 4.24256 36.3415 2.09307 38.3253C-0.0700042 40.3217 -1.625 42.865 -1.625 45.9375H2.375ZM28.5 33.875C32.9433 33.875 39.7218 35.0058 45.3388 37.256C48.1457 38.3804 50.5367 39.7352 52.194 41.2647C53.8377 42.7818 54.625 44.3342 54.625 45.9375H58.625C58.625 42.865 57.07 40.3217 54.9069 38.3253C52.7574 36.3415 49.8773 34.7651 46.8263 33.5428C40.7274 31.0996 33.4434 29.875 28.5 29.875V33.875ZM54.625 45.9375V47.3046H58.625V45.9375H54.625ZM55.1255 45.9811C48.6177 53.3544 39.1026 58 28.5 58V62C40.2979 62 50.8896 56.8252 58.1245 48.6281L55.1255 45.9811ZM28.5 58C17.8974 58 8.38229 53.3544 1.87448 45.9811L-1.12448 48.6281C6.11042 56.8252 16.7021 62 28.5 62V58ZM16.4375 14.6875C16.4375 8.02254 21.835 2.625 28.5 2.625V-1.375C19.6259 -1.375 12.4375 5.8134 12.4375 14.6875H16.4375ZM28.5 26.75C21.835 26.75 16.4375 21.3525 16.4375 14.6875H12.4375C12.4375 23.5616 19.6259 30.75 28.5 30.75V26.75ZM40.5625 14.6875C40.5625 21.3525 35.165 26.75 28.5 26.75V30.75C37.3741 30.75 44.5625 23.5616 44.5625 14.6875H40.5625ZM28.5 2.625C35.165 2.625 40.5625 8.02254 40.5625 14.6875H44.5625C44.5625 5.8134 37.3741 -1.375 28.5 -1.375V2.625Z" fill="#AAAAAA" mask="url(#path-1-inside-1)"/>
</svg>
